<svg xmlns="http://www.w3.org/2000/svg" version="1.1" xmlns:xlink="http://www.w3.org/1999/xlink" xmlns:svgjs="http://svgjs.dev/svgjs" width="100%" height="100%" viewBox="0 0 1000 600"><rect width="1000" height="600" x="0" y="0" fill="#f1f3ee"/><g><circle r="166.66666666666666" cx="291.94884745279944" cy="314.1710681712242" fill="#f9bf45" transform="matrix(0.9977476788035213,0,0,0.9977476788035213,0,-13.463459668372337)"/><path d="M225.51817832231723 389.1710867311442L225.51817832231723 389.1710867311442Q223.1378071753618 389.1710867311442 223.1378071753618 386.8273366787573L223.1378071753618 386.8273366787573Q223.1378071753618 383.38495378931407 226.43370568653086 375.7311450244881Q229.72960419769993 368.07733625966216 234.34386211333663 359.1417891849371Q238.95812002897333 350.16962101564354 243.3160302826302 342.66229662909177Q247.6739405362871 335.11835114797145 249.76134292669417 331.71258935309675L249.76134292669417 331.71258935309675Q248.18663586024675 327.2081947211657 248.18663586024675 322.48407352182335L248.18663586024675 322.48407352182335Q248.18663586024675 315.6359288375054 251.99522969537543 313.10907331227577Q255.8404446250727 310.61883888161464 262.175893985431 311.13153420557427L262.175893985431 311.13153420557427Q267.15636284675315 303.2213777787685 272.31993718091803 295.4577057302369Q277.44689042051436 287.6574125871368 282.9766757003647 280.04022491687937L282.9766757003647 280.04022491687937Q285.35704684732013 276.59784202743606 287.9937656562554 272.78924819230735Q290.63048446519065 268.9440332626101 293.5235509361057 266.05096679169503L293.5235509361057 266.05096679169503Q294.0728673546339 265.5382714677354 295.64757442108134 265.5382714677354L295.64757442108134 265.5382714677354Q296.965933825549 265.5382714677354 300.66466437697204 266.30731445367485Q304.3633949283951 267.11297853418284 304.3633949283951 268.9440332626101L304.3633949283951 268.9440332626101Q304.3633949283951 269.2003809245899 303.3013831859073 269.7496973431181L303.3013831859073 269.7496973431181Q300.66466437697204 272.899111476013 298.0279455680368 276.19500998718206Q295.3912267591015 279.4909084983512 292.75450795016627 282.9332913877944L292.75450795016627 282.9332913877944Q285.9063632658483 291.61249080053966 279.31456624351017 300.7311433481074Q272.72276922117203 309.81317480110664 266.3873198608137 319.0416906323801L266.3873198608137 319.0416906323801Q272.97911688315185 318.27264764644065 283.26964445691306 315.0866124189772Q293.5235509361057 311.9371982860823 305.0225746306289 306.92010833019157Q316.4849772305836 301.90301837430087 326.7755048043448 295.56756901394255Q337.02941128353757 289.26874074815277 343.51134502216996 281.87127964530663Q349.9566576662339 274.47381854246044 349.9566576662339 266.56366211565467L349.9566576662339 266.56366211565467Q349.9566576662339 259.4591697693569 344.4268723863836 256.1632712581878Q338.89708710653326 252.86737274701878 331.6461103819613 251.80536100453097Q324.39513365738935 250.74334926204315 319.37804370149865 250.74334926204315L319.37804370149865 250.74334926204315Q302.4957191053993 250.74334926204315 283.92882415914687 255.504091555954Q265.3253081183259 260.2648338498649 248.99229994075475 264.9889550492072L248.99229994075475 264.9889550492072Q247.1246241177589 265.7946191297152 244.74425297080347 265.7946191297152L244.74425297080347 265.7946191297152Q241.8511864998884 265.7946191297152 240.12999505516677 263.8170800230138Q238.4454247050137 261.83954091631233 238.4454247050137 258.94647444539726L238.4454247050137 258.94647444539726Q238.4454247050137 252.35467742305912 244.23155764684384 249.9743062761037L244.23155764684384 249.9743062761037Q245.80626471329128 249.1686421955957 247.9302881982669 248.65594687163608Q250.017690588674 248.10663045310787 251.8853664116698 247.85028279112805L251.8853664116698 247.85028279112805Q267.4493316033015 244.70086865823316 283.5259921188929 241.91766547102372Q299.60265263448423 239.17108337838283 315.6793131500756 239.17108337838283L315.6793131500756 239.17108337838283Q322.8204265909419 239.17108337838283 330.7305830177477 240.34295840457628Q338.64073944455345 241.51483343076973 345.3423997505972 244.70086865823316Q352.08068115120966 247.85028279112805 356.43859140486654 253.5265524492526Q360.75988056395477 259.2028221073771 360.75988056395477 268.17499027667066L360.75988056395477 268.17499027667066Q360.75988056395477 277.1105373513957 354.4610522981651 285.02069377820146Q348.12560293780666 292.9308502050073 338.64073944455345 299.15643628166Q329.1192548567317 305.3454012637441 319.12169603951884 309.5568271391268Q309.08751612773744 313.7682530145096 301.72667611945985 315.8922764994852L301.72667611945985 315.8922764994852Q292.75450795016627 318.27264764644065 283.92882415914687 320.5065344151219Q275.0665192735589 322.74042118380316 266.1309721988339 324.5714759122304L266.1309721988339 324.5714759122304Q267.96202692726115 331.45624169111693 272.17345280264385 337.4987222949269Q276.38487867802655 343.5778239933054 281.40196863391725 348.30194519264774L281.40196863391725 348.30194519264774Q291.1798008837188 357.2741133619413 304.47325821210075 364.41522680280764Q317.8033366350512 371.5197191491054 330.7305830177477 374.4127856200205L330.7305830177477 374.4127856200205Q333.62364948866275 374.96210203854866 336.11388391932394 375.2184497005285Q338.64073944455345 375.4747973625083 341.2774582534887 375.98749268646793L341.2774582534887 375.98749268646793Q342.85216531993615 375.98749268646793 342.85216531993615 377.5988208474839L342.85216531993615 377.5988208474839Q342.85216531993615 378.91718025195155 341.1309738752145 379.283391197637Q339.4097824304929 379.686223237891 338.0914230260254 379.686223237891L338.0914230260254 379.686223237891Q328.35021187079224 379.686223237891 315.9356608120554 376.64667238870175Q303.5577308478871 373.64374263408104 291.1798008837188 368.22382063793634Q278.765249824982 362.80389864179165 268.76769100776914 355.44305863351406Q258.73351109598775 348.0455975306679 253.20372581613745 339.3663981179227L253.20372581613745 339.3663981179227Q249.24864760273454 345.6652263837125 244.37804202511802 353.57538281051825Q239.47081535293296 361.485539237324 235.14952619384462 369.68866442067815Q230.79161594018774 377.85516850946374 228.4112447932323 384.7033131937817L228.4112447932323 384.7033131937817Q228.15489713125248 385.7653249362695 227.6055807127243 387.48651638099113Q227.09288538876467 389.1710867311442 225.51817832231723 389.1710867311442Z " fill="#345e6f" transform="matrix(0.9977476788035213,0,0,0.9977476788035213,0,-13.463459668372337)"/><path d="M544.003636989091 372.76434592337L544.003636989091 372.76434592337Q541.9488423363886 372.76434592337 541.9488423363886 370.7411634960937L541.9488423363886 370.7411634960937Q541.9488423363886 367.7696143060316 544.7939426247459 361.16265919195723Q547.6390429131033 354.55570407788287 551.6221833168036 346.84232107389175Q555.6053237205039 339.09732584447454 559.3671785462208 332.6168196321049Q563.1290333719378 326.1047011943092 564.9309302212308 323.1647642296733L564.9309302212308 323.1647642296733Q563.5716045279045 319.27646050225155 563.5716045279045 315.1984834222726L563.5716045279045 315.1984834222726Q563.5716045279045 309.2869972675746 566.8592759722286 307.1057537131672Q570.1785596419788 304.95612238418613 575.6474746407101 305.3986935401528L575.6474746407101 305.3986935401528Q579.9467372986725 298.5704528480951 584.4040610837657 291.8686610577422Q588.8297726434326 285.13525704196314 593.6032186827878 278.559914153315L593.6032186827878 278.559914153315Q595.6580133354904 275.58836496325284 597.9340935661762 272.30069351892877Q600.2101737968621 268.9814098491785 602.7075396055313 266.4840440405093L602.7075396055313 266.4840440405093Q603.1817229869242 266.0414728845426 604.5410486802506 266.0414728845426L604.5410486802506 266.0414728845426Q605.6790887955934 266.0414728845426 608.8719235636389 266.7053296184926Q612.0647583316845 267.40079857786884 612.0647583316845 268.9814098491785L612.0647583316845 268.9814098491785Q612.0647583316845 269.20269542716187 611.1480037943248 269.67687880855476L611.1480037943248 269.67687880855476Q608.8719235636389 272.39553019520736 606.5958433329531 275.2406304835647Q604.3197631022672 278.0857307719221 602.0436828715814 281.0572799619842L602.0436828715814 281.0572799619842Q596.1321967168832 288.54937738799197 590.4419961401685 296.420821519114Q584.7517955634538 304.26065342480985 579.2828805647224 312.2269342322105L579.2828805647224 312.2269342322105Q584.9730811414371 311.56307749826044 593.8561164861973 308.81281388618163Q602.7075396055313 306.09416249952903 612.6337783893559 301.7632876161406Q622.5284049477543 297.4324127327522 631.4114402925146 291.9634977340208Q640.2628634118486 286.5261949607156 645.8582273122847 280.1405254246246Q651.4219789872947 273.75485588853365 651.4219789872947 266.92661519647595L651.4219789872947 266.92661519647595Q651.4219789872947 260.79384346379453 646.6485329479395 257.94874317543713Q641.8750869085844 255.10364288707981 635.6158662741982 254.18688834972022Q629.356645639812 253.27013381236063 625.0257707564236 253.27013381236063L625.0257707564236 253.27013381236063Q610.4525348349487 253.27013381236063 594.4251365438688 257.3797231177657Q578.3661260273628 261.48931242317076 564.2670734872808 265.5672895031497L564.2670734872808 265.5672895031497Q562.6548499905449 266.2627584625259 560.6000553378424 266.2627584625259L560.6000553378424 266.2627584625259Q558.1026895291731 266.2627584625259 556.6169149341421 264.5556982895115Q555.1627525645372 262.8486381164971 555.1627525645372 260.3512723078278L555.1627525645372 260.3512723078278Q555.1627525645372 254.6610717311131 560.1574841818757 252.60627707841056L560.1574841818757 252.60627707841056Q561.516809875202 251.91080811903433 563.3503189499212 251.46823696306762Q565.1522157992141 250.9940535816747 566.76443929595 250.77276800369137L566.76443929595 250.77276800369137Q580.199635102082 248.05411661703877 594.0774020641807 245.6515874846481Q607.9551690262793 243.28067057768362 621.8329359883782 243.28067057768362L621.8329359883782 243.28067057768362Q627.9973199464857 243.28067057768362 634.8255606385434 244.2922617913218Q641.653801330601 245.30385300496 647.4388385835944 248.05411661703877Q653.2554880620139 250.77276800369137 657.0173428877308 255.67266294475127Q660.7475854880216 260.5725578858112 660.7475854880216 268.31755311522846L660.7475854880216 268.31755311522846Q660.7475854880216 276.0309361192195 655.3102827147164 282.8591768112772Q649.841367715985 289.68741750333487 641.653801330601 295.0614958257877Q633.4346227197909 300.4039619228143 624.8044851784402 304.0393678468265Q616.1427354116634 307.6747737708387 609.7886781009986 309.5082828455579L609.7886781009986 309.5082828455579Q602.0436828715814 311.56307749826044 594.4251365438688 313.4914232492582Q586.7749779907301 315.419769000256 579.061594986739 317.00038027156563L579.061594986739 317.00038027156563Q580.6422062580488 322.94347865168993 584.2776121820608 328.1594958470117Q587.9130181060731 333.40712526775985 592.2438929894614 337.4851023477387L592.2438929894614 337.4851023477387Q600.684357178255 345.230097577156 612.159595007963 351.3944815352636Q623.6664450630973 357.52725326794507 634.8255606385434 360.0246190766143L634.8255606385434 360.0246190766143Q637.3229264472127 360.49880245800716 639.4725577761938 360.72008803599056Q641.653801330601 360.94137361397384 643.929881561287 361.3839447699405L643.929881561287 361.3839447699405Q645.2892072546133 361.3839447699405 645.2892072546133 362.7748826886931L645.2892072546133 362.7748826886931Q645.2892072546133 363.91292280403604 643.8034326595822 364.22904505829797Q642.3176580645511 364.576779537986 641.1796179492083 364.576779537986L641.1796179492083 364.576779537986Q632.7707659858409 364.576779537986 622.0542215663614 361.95296482761205Q611.3692893723082 359.3607623426642 600.684357178255 354.6821529795876Q589.9678127587756 350.00354361651114 581.3376752174249 343.64948630584627Q572.675925450648 337.2638167697553 567.9024794112929 329.7717193437476L567.9024794112929 329.7717193437476Q564.488359065264 335.20902211705277 560.2839330835803 342.03726280911053Q556.0478948764705 348.8655035011682 552.3176522761797 355.94664199663544Q548.5557974504628 362.99616826667636 546.5010027977603 368.90765442137445L546.5010027977603 368.90765442137445Q546.2797172197769 369.8244089587341 545.8055338383841 371.3101835537651Q545.3629626824173 372.76434592337 544.003636989091 372.76434592337ZM674.1827812941536 362.7748826886931L674.1827812941536 362.7748826886931Q670.9899465261082 362.7748826886931 665.7739293307864 362.5219848852835Q660.5262999100382 362.3006993073002 655.3102827147164 361.16265919195723Q650.0626532939684 360.0246190766143 646.4272473699563 357.4008043662402Q642.791841445944 354.8086018812925 642.791841445944 350.00354361651114L642.791841445944 350.00354361651114Q642.791841445944 346.1468521145156 646.2059617919729 338.7495913647864Q649.6200821380016 331.3523306150572 655.1838338130117 322.02672411433036Q660.7475854880216 312.7011176136034 667.4809895038007 302.6800421535002Q674.1827812941536 292.658966693397 680.6632875065231 283.4281968689487Q687.175405944319 274.22903926992655 692.5178720413455 267.0530640981807Q697.8603381383722 259.8770889264349 700.5789895250248 256.24168300242275L700.5789895250248 256.24168300242275Q698.3029092943389 256.6842541583894 692.7391576193289 257.8222942737324Q687.175405944319 258.96033438907534 681.0110219862113 260.92029236549934Q674.8782502535298 262.8486381164971 670.5473753701415 265.47245282687106Q666.216500486753 268.0646553118189 666.216500486753 271.47877565784773L666.216500486753 271.47877565784773Q666.216500486753 272.6168157731907 666.4377860647363 273.0909991545836L666.4377860647363 273.0909991545836Q666.9119694461292 273.5335703105503 666.9119694461292 274.0077536919432L666.9119694461292 274.0077536919432Q666.9119694461292 275.58836496325284 665.0784603714101 275.58836496325284L665.0784603714101 275.58836496325284Q663.4978491001004 275.58836496325284 662.9288290424289 272.96455025287884Q662.3598089847575 270.34073554250483 662.3598089847575 269.20269542716187L662.3598089847575 269.20269542716187Q662.3598089847575 263.98667823184 666.5642349664411 259.7822522501564Q670.7686609481248 255.54621404304652 676.3640248485609 252.4798281767058Q681.9277765235709 249.41344231036507 686.037365828976 248.05411661703877L686.037365828976 248.05411661703877Q692.1701375616574 245.77803638635288 698.8719293520103 244.63999627100992Q705.6053333677894 243.501956155667 711.9593906784542 242.5852016183074L711.9593906784542 242.5852016183074Q713.3503285972067 241.2258759249811 714.3619198108449 240.3091213876215Q715.373511024483 239.3923668502619 717.4283056771856 239.3923668502619L717.4283056771856 239.3923668502619Q719.0405291739214 239.3923668502619 720.8424260232144 239.9613869079334Q722.6759350979336 240.53040696560487 723.5926896352933 241.6684470809478L723.5926896352933 241.6684470809478Q726.0900554439625 241.6684470809478 728.7138701543365 241.5736104046692Q731.3060726392844 241.44716150296443 733.5821528699702 241.44716150296443L733.5821528699702 241.44716150296443Q739.9678224060611 241.44716150296443 746.5747775201355 242.23746713861928Q753.1817326342098 243.0277727742741 757.8287297718603 246.5683420220077Q762.5073391349367 250.10891126974133 762.5073391349367 258.2964776551253L762.5073391349367 258.2964776551253Q762.5073391349367 260.0983745044183 761.8118701755604 262.94347479277565Q761.1480134416104 265.788575081133 759.6622388465794 267.9698186355404Q758.1764642515483 270.11944996452144 755.9003840208625 270.11944996452144L755.9003840208625 270.11944996452144Q754.9836294835028 270.11944996452144 754.9836294835028 269.8981643865381L754.9836294835028 269.8981643865381Q754.9836294835028 269.45559323057137 756.3429551768292 267.62208415585224Q757.7338930955816 265.788575081133 757.7338930955816 263.5124948504471L757.7338930955816 263.5124948504471Q757.7338930955816 260.0983745044183 754.193323847848 258.07519207714193Q750.6527546001143 256.0203974244394 745.658022982776 255.2300917887846Q740.6632913654374 254.40817392770356 736.1111309040656 254.18688834972022Q731.5589704426939 253.96560277173685 729.2828902120079 253.96560277173685L729.2828902120079 253.96560277173685Q721.5378949825906 253.96560277173685 714.0141853311568 254.6610717311131L714.0141853311568 254.6610717311131Q706.522087905149 264.42924938780675 699.2196638316984 274.32387594620513Q691.9488519836741 284.25011473002974 684.6464279102236 294.0182923867233L684.6464279102236 294.0182923867233Q697.8603381383722 294.0182923867233 710.9477994648161 294.1447412884281Q724.0352607912599 294.2395779647067 737.2491710194085 294.2395779647067L737.2491710194085 294.2395779647067Q738.3872111347515 294.2395779647067 738.3872111347515 295.1563325020663L738.3872111347515 295.1563325020663Q738.3872111347515 297.2111271547688 736.2059675803442 298.222718368407Q734.0563362513631 299.2659218074714 732.4441127546272 299.4872073854547L732.4441127546272 299.4872073854547Q729.5041757899913 299.9297785414214 726.4377899236506 300.0562274431262Q723.3397918318836 300.18267634483095 720.1785692892644 300.4039619228143L720.1785692892644 300.4039619228143Q714.4883687125497 300.6252475007977 707.4072302170824 301.06781865676436Q700.3577039470414 301.54200203815725 693.4346265787051 302.4587565755168Q686.4799369849427 303.3438988874503 681.2323075641947 305.3986935401528L681.2323075641947 305.3986935401528Q678.0710850215753 306.53673365549577 673.8350468144655 311.56307749826044Q669.6306208327819 316.55780911559896 665.552643752803 323.25960090595186Q661.4430544473978 329.99300492173097 658.7244030607453 336.12577665441245Q655.9741394486665 342.29016061252 655.9741394486665 345.7042809585489L655.9741394486665 345.7042809585489Q655.9741394486665 350.6990125758874 659.7359942743834 353.101541708278Q663.4978491001004 355.47245861524243 668.6190296191437 356.1679275746187Q673.740210138187 356.8317843085688 677.3756160621991 356.8317843085688L677.3756160621991 356.8317843085688Q683.2871022168972 356.8317843085688 691.4746686022812 355.6937441932258Q699.6938472130913 354.55570407788287 708.4504336561467 352.53252165060655Q717.2070200992023 350.477726997904 725.046852004898 348.07519786551336Q732.9182961360202 345.7042809585489 738.3872111347515 342.9540173464701L738.3872111347515 342.9540173464701Q739.272353446685 342.5114461905034 739.9678224060611 342.5114461905034L739.9678224060611 342.5114461905034Q741.8013314807804 342.5114461905034 741.8013314807804 344.7875264211892L741.8013314807804 344.7875264211892Q741.8013314807804 349.1184013045777 736.996273215999 351.963501592935Q732.2228271766439 354.8086018812925 728.5874212526317 355.94664199663544L728.5874212526317 355.94664199663544Q721.759180560574 357.96982442391175 711.6432684241923 359.45559901894285Q701.4957440623843 360.94137361397384 691.4746686022812 361.8581281513335Q681.4852053676042 362.7748826886931 674.1827812941536 362.7748826886931ZM776.3851060970355 389.1710909195642L776.3851060970355 389.1710909195642Q774.1090258663496 389.1710909195642 771.4852111559755 388.69690753817133Q768.8613964456015 388.25433638220454 767.0594995963086 386.6737251108949L767.0594995963086 386.6737251108949Q764.3092359842298 384.3976448802091 762.5073391349367 381.29964678844215Q760.6738300602176 378.2332609221014 760.6738300602176 374.59785499808925L760.6738300602176 374.59785499808925Q760.6738300602176 368.46508326540777 765.0047049436059 364.22904505829797Q769.3355798269945 360.0246190766143 774.3303114443329 358.22272222732124L774.3303114443329 358.22272222732124Q764.7834193656226 356.6104987305854 760.3260955805295 350.00354361651114Q755.9003840208625 343.428200727863 755.9003840208625 334.3238798051194L755.9003840208625 334.3238798051194Q755.9003840208625 323.1647642296733 760.8951156382009 310.1721395795079Q765.9214594809656 297.2111271547688 774.5515970223163 284.6926858859964Q783.2133467890931 272.174244617224 794.3724623645393 261.8054346774327Q805.5315779399854 251.46823696306762 817.7022847290697 245.30385300496Q829.8729915181539 239.17108127227857 841.9488616309596 239.17108127227857L841.9488616309596 239.17108127227857Q854.2144050963225 239.17108127227857 863.2238893427875 246.34705644402436Q872.2017613638263 253.52303161577015 872.2017613638263 266.2627584625259L872.2017613638263 266.2627584625259Q872.2017613638263 277.42187403797203 867.3018664227664 288.8022751914015Q862.4335837071326 300.18267634483095 856.4904853270084 309.2869972675746L856.4904853270084 309.2869972675746Q849.9151424383602 319.27646050225155 840.4630870359285 328.94980148266654Q831.0110316334969 338.62314246308165 819.7570793817722 346.02040321281083Q808.4715149046212 353.4176639625399 796.4272570172418 356.6104987305854L796.4272570172418 356.6104987305854Q792.7602388678034 357.52725326794507 789.251281845496 357.96982442391175Q785.7107125977624 358.44400780530464 781.8540210957668 358.6652933832879L781.8540210957668 358.6652933832879Q779.7992264430643 358.6652933832879 776.6063916750188 360.49880245800716Q773.4135569069733 362.3006993073002 770.4736199423373 364.48194286170747Q767.5020707522752 366.63157419068864 766.1427450589489 368.2121854619983L766.1427450589489 368.2121854619983Q764.0879504062464 370.7411634960937 764.0879504062464 373.0172437267796L764.0879504062464 373.0172437267796Q764.0879504062464 375.5146095354488 766.0162961572441 376.526200749087Q767.9762541336681 377.56940418815134 770.252334364354 377.56940418815134L770.252334364354 377.56940418815134Q775.0257804037092 377.56940418815134 780.0205120210476 376.30491517110363Q785.0468558638123 375.0404261540559 789.8203019031674 373.6811004607297L789.8203019031674 373.6811004607297Q804.1406400212329 369.8244089587341 819.8519160580508 365.6199829770504Q835.5631920948687 361.3839447699405 850.5789991723103 361.3839447699405L850.5789991723103 361.3839447699405Q855.8266285930583 361.3839447699405 861.9594003257398 362.64843378698833Q868.1237842838475 363.91292280403604 872.5494958435144 367.42187982634346Q876.9752074031815 370.9624490740771 876.9752074031815 377.79068976613473L876.9752074031815 377.79068976613473Q876.9752074031815 378.4545465000848 876.7539218251981 379.9403210951159Q876.5326362472147 381.4260956901469 875.3945961318718 381.4260956901469L875.3945961318718 381.4260956901469Q874.4778415945123 381.4260956901469 874.0352704385455 380.28805557480393Q873.5610870571527 379.1500154594611 873.3398014791692 378.4545465000848L873.3398014791692 378.4545465000848Q872.6759447452191 374.59785499808925 869.5779466534523 373.11208040305814Q866.5115607871115 371.62630580802704 862.7497059613945 371.3101835537651Q859.0194633611038 370.9624490740771 855.8266285930583 370.9624490740771L855.8266285930583 370.9624490740771Q840.1153525562404 370.9624490740771 825.7634022127488 375.38816063374406Q811.4430640946835 379.84548441883726 796.6485425952251 385.06150161415906L796.6485425952251 385.06150161415906Q791.87509655587 386.6737251108949 786.7539160368267 387.9066019025165Q781.6327355177834 389.1710909195642 776.3851060970355 389.1710909195642ZM788.2080784064316 353.1963783845566L788.2080784064316 353.1963783845566Q796.8698281732085 353.1963783845566 805.8477001942473 348.6442179231848Q814.8571844407122 344.09205746181306 823.2660364040796 336.91608229006727Q831.7065005928732 329.7717193437476 838.5347412849308 321.9002752126256Q845.3629819769885 314.06044330692976 849.6622446349506 307.232202614872L849.6622446349506 307.232202614872Q855.3524452116654 298.5704528480951 860.031054574742 287.53778617435376Q864.7096639378185 276.50511950061247 864.7096639378185 266.0414728845426L864.7096639378185 266.0414728845426Q864.7096639378185 257.3797231177657 860.4736257307088 251.68952254105096Q856.2691997490251 245.99932196433622 846.9435932482982 245.99932196433622L846.9435932482982 245.99932196433622Q838.2818434815213 245.99932196433622 829.3039714604824 250.551482425708Q820.3260994394436 255.10364288707981 811.8856352506501 262.15316915712083Q803.4767832872828 269.20269542716187 796.6485425952251 277.0741395582839Q789.8203019031674 284.91397146397975 785.489427019779 291.74221215603745L785.489427019779 291.74221215603745Q779.7992264430643 300.4039619228143 775.1206170799877 311.43662859655564Q770.4736199423373 322.46929527029704 770.4736199423373 332.93294188636685L770.4736199423373 332.93294188636685Q770.4736199423373 341.59469165314374 774.8044948257259 347.4113411315633Q779.103757483688 353.1963783845566 788.2080784064316 353.1963783845566Z " fill="#345e6f" transform="matrix(0.9977476788035213,0,0,0.9977476788035213,0,-13.463459668372337)"/></g></svg>